<?xml version="1.0" encoding="utf-8"?>
<svg viewBox="156.893 160.31 107.11 58.322" width="107.11" height="58.322" xmlns="http://www.w3.org/2000/svg">
  <ellipse style="stroke: rgb(0, 0, 0); fill: rgb(224, 49, 49); paint-order: stroke;" cx="187.305" cy="189.471" rx="30.412" ry="29.161"/>
  <path d="M 180.971 197.387 L 181.533 194.68 L 191.424 183.078 L 183.42 183.078 L 184.018 180.207 L 196.404 180.207 L 195.889 182.903 L 185.893 194.574 Q 187.486 194.539 187.732 194.539 Q 188.857 194.539 190.838 194.516 L 194.893 194.516 L 194.295 197.387 Z" style="fill: rgb(51, 51, 51); white-space: pre;"/>
  <path d="M 230.405 188.89 L 235.626 188.89 L 234.576 193.896 Q 233.652 194.493 232.311 194.907 Q 230.97 195.321 229.577 195.321 Q 227.413 195.321 226.258 194.342 Q 224.683 193.005 224.683 190.466 Q 224.683 188.763 225.359 187.203 Q 226.171 185.324 227.667 184.29 Q 229.163 183.255 231.185 183.255 Q 233.207 183.255 234.428 184.194 Q 235.65 185.133 236.048 186.932 L 233.812 187.187 Q 233.517 186.2 232.86 185.699 Q 232.204 185.197 231.209 185.197 Q 230.047 185.197 229.076 185.802 Q 228.105 186.407 227.556 187.672 Q 227.007 188.938 227.007 190.434 Q 227.007 191.907 227.675 192.611 Q 228.344 193.315 229.633 193.315 Q 230.405 193.315 231.217 193.096 Q 232.029 192.878 232.618 192.575 L 232.976 190.84 L 229.999 190.84 Z M 244.783 191.604 L 239.052 191.604 Q 239.044 191.739 239.044 191.811 Q 239.044 192.655 239.526 193.172 Q 240.007 193.689 240.7 193.689 Q 241.838 193.689 242.474 192.511 L 244.52 192.854 Q 243.923 194.087 242.924 194.704 Q 241.925 195.321 240.684 195.321 Q 238.98 195.321 237.914 194.243 Q 236.847 193.164 236.847 191.389 Q 236.847 189.654 237.81 188.301 Q 239.124 186.471 241.559 186.471 Q 243.111 186.471 244.026 187.43 Q 244.942 188.389 244.942 190.116 Q 244.942 190.944 244.783 191.604 Z M 242.856 190.211 Q 242.864 190.06 242.864 189.98 Q 242.864 189.041 242.443 188.572 Q 242.021 188.102 241.312 188.102 Q 240.604 188.102 240.043 188.635 Q 239.482 189.169 239.283 190.211 Z M 247.416 186.67 L 249.581 186.67 L 249.358 187.768 Q 250.169 187.068 250.874 186.769 Q 251.578 186.471 252.358 186.471 Q 253.401 186.471 254.002 187.068 Q 254.603 187.664 254.603 188.651 Q 254.603 189.097 254.34 190.339 L 253.345 195.122 L 251.061 195.122 L 252.064 190.323 Q 252.287 189.248 252.287 189.041 Q 252.287 188.604 252.028 188.353 Q 251.769 188.102 251.308 188.102 Q 250.806 188.102 250.193 188.524 Q 249.581 188.946 249.23 189.638 Q 248.976 190.132 248.657 191.652 L 247.933 195.122 L 245.649 195.122 Z M 254.434 195.122 L 254.816 193.283 L 261.534 185.404 L 256.098 185.404 L 256.504 183.454 L 264.916 183.454 L 264.566 185.285 L 257.777 193.212 Q 258.859 193.188 259.027 193.188 Q 259.791 193.188 261.136 193.172 L 263.889 193.172 L 263.484 195.122 Z" style="fill: rgb(255, 255, 255); white-space: pre;"/>
</svg>